<?xml version="1.0" encoding="UTF-8" standalone="no"?>
<svg width="140px" height="140px" viewBox="0 0 140 140" version="1.1" xmlns="http://www.w3.org/2000/svg" xmlns:xlink="http://www.w3.org/1999/xlink">
    <!-- Generator: Sketch 3.7.2 (28276) - http://www.bohemiancoding.com/sketch -->
    <title>close</title>
    <desc>Created with Sketch.</desc>
    <defs></defs>
    <g id="close">
        <path d="M69.695,0.608 C31.266,0.608 0,31.874 0,70.303 C0,108.733 31.266,139.999 69.695,139.999 C108.125,139.999 139.391,108.733 139.391,70.303 C139.391,31.874 108.125,0.608 69.695,0.608 L69.695,0.608 Z M69.695,128.053 C37.855,128.053 11.949,102.147 11.949,70.303 C11.949,38.463 37.855,12.557 69.695,12.557 C101.539,12.557 127.445,38.463 127.445,70.303 C127.445,102.147 101.535,128.053 69.695,128.053 L69.695,128.053 Z" id="Fill-1"></path>
        <path d="M96.664,43.338 C94.332,41.006 90.547,41.006 88.219,43.338 L69.695,61.862 L51.176,43.338 C48.84,41.006 45.062,41.006 42.727,43.338 C40.395,45.674 40.395,49.452 42.727,51.788 L61.25,70.307 L42.727,88.831 C40.395,91.167 40.395,94.944 42.727,97.28 C43.895,98.444 45.422,99.03 46.953,99.03 C48.48,99.03 50.012,98.448 51.176,97.28 L69.695,78.756 L88.219,97.28 C89.383,98.444 90.91,99.03 92.441,99.03 C93.969,99.03 95.496,98.448 96.664,97.28 C99,94.944 99,91.167 96.664,88.831 L78.145,70.311 L96.664,51.788 C98.996,49.452 98.996,45.674 96.664,43.338 L96.664,43.338 Z" id="Fill-4"></path>
    </g>
</svg>
