<svg xmlns="http://www.w3.org/2000/svg" width="20.56" height="20.563" viewBox="0 0 20.56 20.563"><path d="M1883.5 158.086a.8.8 0 0 1-.58.234h-14.31a.8.8 0 0 1-.59-.234.815.815 0 0 1-.23-.583v-8.679h1.89a5.728 5.728 0 0 0-.27 1.755 5.886 5.886 0 0 0 1.88 4.386 6.247 6.247 0 0 0 4.51 1.815 6.412 6.412 0 0 0 3.21-.831 6.173 6.173 0 0 0 2.33-2.256 5.86 5.86 0 0 0 .86-3.114 5.728 5.728 0 0 0-.27-1.755h1.81v8.676a.784.784 0 0 1-.24.586zm-7.7-3.717a4.025 4.025 0 0 1-2.91-1.172 3.9 3.9 0 0 1 0-5.665 4.029 4.029 0 0 1 2.91-1.172 4.075 4.075 0 0 1 2.93 1.172 3.92 3.92 0 0 1 0 5.665 4.071 4.071 0 0 1-2.93 1.172zm7.67-8.17a.877.877 0 0 1-.65.268h-2.33a.9.9 0 0 1-.66-.268.887.887 0 0 1-.27-.656v-2.21a.93.93 0 0 1 .93-.924h2.33a.869.869 0 0 1 .65.275.894.894 0 0 1 .27.649v2.21a.887.887 0 0 1-.27.657zm1.82-5.3a2.512 2.512 0 0 0-1.86-.777h-15.29a2.658 2.658 0 0 0-2.64 2.638v15.295a2.656 2.656 0 0 0 2.64 2.638h15.29a2.656 2.656 0 0 0 2.64-2.638v-15.298a2.533 2.533 0 0 0-.78-1.857z" transform="translate(-1865.5 -140.125)"/></svg>
