<?xml version="1.0" encoding="UTF-8" standalone="no"?>
<svg width="360px" height="118px" viewBox="0 0 360 118" version="1.1" xmlns="http://www.w3.org/2000/svg" xmlns:xlink="http://www.w3.org/1999/xlink">
    <!-- Generator: Sketch 3.7.2 (28276) - http://www.bohemiancoding.com/sketch -->
    <title>login</title>
    <desc>Created with Sketch.</desc>
    <defs></defs>
    <g id="Page-1" stroke="none" stroke-width="1" fill="none" fill-rule="evenodd">
        <g id="login" transform="translate(0.000000, 3.000000)">
            <path d="M23.8845,70.0865 C23.8845,70.5915 24.0815,71.0665 24.4385,71.4235 L28.0045,74.9915 C28.3625,75.3485 28.8375,75.5455 29.3425,75.5455 C29.8485,75.5455 30.3225,75.3485 30.6805,74.9915 L48.5615,57.1105 C48.9185,56.7535 49.1155,56.2775 49.1155,55.7725 C49.1155,55.2685 48.9185,54.7925 48.5615,54.4355 L30.6805,36.5545 C30.3235,36.1975 29.8485,36.0005 29.3435,36.0005 C28.8375,36.0005 28.3635,36.1975 28.0065,36.5545 L24.4385,40.1215 C24.0815,40.4785 23.8855,40.9535 23.8855,41.4585 C23.8855,41.9645 24.0815,42.4385 24.4395,42.7955 L33.0025,51.3595 L1.8915,51.3595 C0.8485,51.3595 0.0005,52.2085 0.0005,53.2505 L0.0005,58.2945 C0.0005,59.3385 0.8485,60.1865 1.8915,60.1865 L33.0015,60.1865 L24.4385,68.7495 C24.0815,69.1065 23.8845,69.5815 23.8845,70.0865" id="Fill-1" fill="#00B2DD"></path>
            <path d="M30.558,85.8645 L30.558,96.9905 C30.558,105.0295 37.074,111.5465 45.113,111.5465 L342.361,111.5465 C350.4,111.5465 356.917,105.0295 356.917,96.9905 L356.917,14.5555 C356.917,6.5165 350.4,0.0005 342.361,0.0005 L45.113,0.0005 C37.074,0.0005 30.558,6.5165 30.558,14.5555 L30.558,25.6815" id="Stroke-3" stroke="#00B2DD" stroke-width="6" stroke-linecap="round" stroke-linejoin="round"></path>
            <path d="M155.1313,56.5999 L155.1313,89.5979 L167.7283,89.5979 L167.7283,56.5999 L180.0843,56.5999 L180.6693,44.7189 L167.7283,44.7189 L167.7283,36.5819 L167.7283,36.0319 C167.7283,34.2239 168.0603,32.8959 168.7263,32.0489 C169.3913,31.2029 170.7223,30.7789 172.7183,30.7789 C175.3573,30.7789 177.8933,30.7909 180.3253,30.8129 L180.6003,19.7219 L179.5683,19.6189 C178.8793,19.5509 177.8353,19.4759 176.4363,19.3959 C175.0363,19.3159 173.6253,19.2759 172.2023,19.2759 C169.3343,19.2759 166.7823,19.6939 164.5443,20.5289 C162.3073,21.3649 160.5173,22.5039 159.1753,23.9459 C157.8333,25.3879 156.8233,27.0069 156.1463,28.8039 C155.4693,30.6019 155.1313,32.5189 155.1313,34.5559 L155.1313,44.7189 L146.3893,44.7189 L146.3893,56.5999 L155.1313,56.5999 Z" id="Fill-5" fill="#00B2DD"></path>
            <path d="M80.2129,83.0574 C83.4239,83.0574 86.4919,82.6914 89.4159,81.9594 C92.3399,81.2284 94.9769,80.2094 97.3259,78.9044 C99.6749,77.5984 101.8499,76.0564 103.8529,74.2764 C105.8549,72.4964 107.5789,70.5534 109.0259,68.4474 C110.4729,66.3404 111.7069,64.1264 112.7279,61.8024 C113.7489,59.4784 114.5129,57.1154 115.0179,54.7124 C115.5239,52.3094 115.7759,49.9314 115.7759,47.5774 C115.7759,47.2214 115.7569,46.6874 115.7169,45.9754 C118.2149,44.1954 120.2959,42.0504 121.9609,39.5384 C119.6419,40.5464 117.2529,41.1994 114.7949,41.4964 C117.4909,39.8944 119.3149,37.5904 120.2669,34.5844 C117.7879,36.0484 115.1519,37.0564 112.3569,37.6104 C109.8979,34.9994 106.8559,33.6944 103.2279,33.6944 C99.7789,33.6944 96.8349,34.9104 94.3969,37.3434 C91.9579,39.7754 90.7389,42.7124 90.7389,46.1534 C90.7389,47.0634 90.8479,48.0034 91.0659,48.9714 C85.9519,48.7154 81.1649,47.4394 76.7039,45.1454 C72.2439,42.8514 68.4479,39.7854 65.3159,35.9484 C64.1859,37.8874 63.6209,39.9834 63.6209,42.2374 C63.6209,44.3734 64.1209,46.3514 65.1219,48.1704 C66.1229,49.9904 67.4759,51.4634 69.1809,52.5914 C67.1789,52.5314 65.2859,52.0174 63.5019,51.0484 L63.5019,51.1964 C63.5019,54.2034 64.4529,56.8434 66.3559,59.1174 C68.2589,61.3924 70.6479,62.8254 73.5229,63.4194 C72.4719,63.7154 71.3819,63.8644 70.2519,63.8644 C69.5179,63.8644 68.7349,63.7854 67.9029,63.6264 C68.6949,66.1384 70.1619,68.2004 72.3029,69.8114 C74.4439,71.4244 76.8629,72.2494 79.5589,72.2884 C75.0189,75.8484 69.8449,77.6284 64.0369,77.6284 C63.0449,77.6284 62.0539,77.5694 61.0629,77.4504 C66.9109,81.1884 73.2939,83.0574 80.2129,83.0574" id="Fill-7" fill="#00B2DD"></path>
            <path d="M267.7512,40.8896 C268.0142,40.5116 268.4222,40.2716 268.9732,40.1686 C269.5242,40.0656 270.0802,40.0136 270.6422,40.0136 C271.2042,40.0136 271.8352,40.0376 272.5352,40.0826 C273.2352,40.1286 273.7342,40.1396 274.0322,40.1166 C274.4912,40.1626 275.3972,40.1166 276.7512,39.9796 C278.1052,39.8426 279.2172,39.8766 280.0902,40.0826 C280.9612,40.2886 281.6502,40.8156 282.1552,41.6626 C284.8852,47.4996 287.2942,51.8376 289.3822,54.6756 C289.4512,54.8366 289.5312,55.0076 289.6232,55.1906 C290.2432,56.2436 291.0112,57.0226 291.9292,57.5256 C293.2142,58.2126 294.0522,57.8006 294.4422,56.2896 C295.2132,52.5126 295.2822,48.6216 294.6482,44.6156 C294.7662,43.9746 294.5662,43.4136 294.0502,42.9326 C293.5342,42.4516 292.9772,42.1086 292.3812,41.9026 C291.7842,41.6966 291.3362,41.4046 291.0382,41.0266 C290.7402,40.6496 290.8662,40.2426 291.4172,39.8076 C292.1052,39.3276 292.8922,38.9666 293.7782,38.7266 C294.6632,38.4856 295.5282,38.3606 296.3732,38.3486 C297.2172,38.3376 298.1202,38.3266 299.0822,38.3146 C300.0442,38.3026 300.9362,38.2856 301.7572,38.2626 C301.8032,38.2626 302.2492,38.2746 303.0942,38.2976 C303.9392,38.3206 304.4902,38.3546 304.7482,38.4006 C305.0062,38.4466 305.4402,38.5266 306.0502,38.6406 C306.6602,38.7556 307.1532,38.9326 307.5282,39.1726 C307.9042,39.4126 308.2322,39.7276 308.5132,40.1166 C308.9822,41.1246 309.2292,42.2406 309.2522,43.4646 C309.2742,44.6896 309.1932,46.0456 309.0062,47.5336 C308.8182,49.0216 308.7362,50.1776 308.7602,51.0016 C308.6422,51.8716 308.6312,52.8786 308.7242,54.0236 C308.8182,55.1686 309.1202,56.1296 309.6312,56.9076 C309.9062,57.3656 310.2392,57.6116 310.6292,57.6456 C311.0192,57.6806 311.4152,57.5486 311.8162,57.2506 C312.2182,56.9536 312.5742,56.6336 312.8832,56.2896 C313.1932,55.9466 313.4632,55.5916 313.6922,55.2256 C315.1832,53.3706 316.4972,51.3746 317.6332,49.2336 C318.7692,47.0936 319.9792,44.5466 321.2642,41.5936 C321.8372,40.7236 322.6002,40.1856 323.5532,39.9796 C324.5052,39.7736 325.7042,39.7506 327.1492,39.9106 C328.5952,40.0716 329.5702,40.1286 330.0752,40.0826 C330.5572,40.1516 331.2912,40.1456 332.2782,40.0656 C333.2642,39.9856 334.1242,39.9226 334.8592,39.8766 C335.5932,39.8306 336.2932,39.9796 336.9592,40.3226 C337.6242,40.6666 338.0262,41.2386 338.1632,42.0396 C337.8882,43.2986 337.4062,44.5926 336.7182,45.9196 C336.0292,47.2476 335.3752,48.3296 334.7562,49.1646 C334.1362,50.0006 333.2532,51.1276 332.1062,52.5466 C330.9582,53.9666 330.1552,54.9966 329.6962,55.6376 C329.6282,55.7056 329.3122,56.0956 328.7502,56.8046 C328.1882,57.5146 327.8212,58.0126 327.6482,58.2986 C327.4762,58.5846 327.2532,59.0256 326.9772,59.6206 C326.7022,60.2156 326.5992,60.7656 326.6682,61.2686 C326.7372,61.7726 326.9432,62.2646 327.2872,62.7446 C327.9292,63.4546 329.1802,64.6966 331.0392,66.4706 C332.8972,68.2446 334.2622,69.6806 335.1342,70.7796 C335.2952,71.0086 335.6052,71.4036 336.0642,71.9646 C336.5222,72.5256 336.8842,73.0066 337.1482,73.4066 C337.4112,73.8076 337.6642,74.2706 337.9052,74.7976 C338.1462,75.3236 338.2202,75.8336 338.1292,76.3256 C338.0372,76.8176 337.7852,77.2696 337.3722,77.6816 C336.2702,78.2306 334.9282,78.5226 333.3452,78.5566 C331.7612,78.5916 330.3622,78.5396 329.1462,78.4026 C327.9292,78.2656 326.5532,78.4146 325.0162,78.8486 C322.4002,78.5746 319.6002,76.7316 316.6182,73.3206 C316.5032,73.1836 316.2392,72.8456 315.8262,72.3076 C315.4132,71.7696 315.0912,71.3756 314.8622,71.1236 C314.6332,70.8716 314.3002,70.5516 313.8642,70.1616 C313.4282,69.7726 313.0382,69.5216 312.6942,69.4066 C312.3502,69.2916 311.9542,69.2636 311.5072,69.3206 C311.0592,69.3776 310.6292,69.5896 310.2162,69.9556 C309.8262,70.4826 309.5672,71.2496 309.4422,72.2566 C309.3152,73.2636 309.2462,74.1736 309.2342,74.9856 C309.2232,75.7986 308.9822,76.5426 308.5132,77.2176 C308.0452,77.8936 307.3052,78.2886 306.2972,78.4026 C302.6622,78.7236 299.1232,78.4196 295.6822,77.4926 C292.2392,76.5656 289.2792,74.9916 286.8012,72.7716 C284.1852,70.3906 281.8052,67.6956 279.6602,64.6846 C277.5142,61.6756 275.3062,58.1786 273.0342,54.1956 C272.7122,53.5546 272.0822,52.3696 271.1412,50.6416 C270.2002,48.9126 269.4492,47.4256 268.8872,46.1776 C268.3242,44.9296 267.8832,43.6766 267.5622,42.4176 C267.4242,41.7766 267.4872,41.2676 267.7512,40.8896" id="Fill-9" fill="#00B2DD"></path>
            <path d="M247.0487,56.0209 C246.5547,55.6149 245.9837,55.3139 245.3687,55.1359 C244.6267,54.9529 243.8477,54.9809 243.1197,55.2169 C242.1637,55.5039 241.2767,55.9829 240.5107,56.6239 L238.9817,57.6279 C237.4717,58.5199 235.8477,59.2019 234.1537,59.6559 C231.8897,60.3449 229.5337,60.6909 227.1667,60.6809 C225.6467,60.6819 224.1297,60.5329 222.6387,60.2369 C221.3867,60.0089 220.1537,59.6869 218.9497,59.2749 C217.9917,58.9349 217.0597,58.5249 216.1607,58.0479 C215.2907,57.5799 214.7207,57.2519 214.4517,57.0649 L213.8217,56.6239 C213.0567,55.9829 212.1697,55.5039 211.2127,55.2169 C210.4857,54.9809 209.7067,54.9529 208.9637,55.1359 C208.3497,55.3139 207.7787,55.6149 207.2847,56.0209 C206.8207,56.4079 206.4437,56.8869 206.1747,57.4269 C205.8417,58.0419 205.6377,58.7189 205.5757,59.4159 C205.5097,59.9639 205.5717,60.5199 205.7557,61.0409 C205.9807,61.6309 206.3407,62.1609 206.8047,62.5879 C207.3337,63.1329 207.9047,63.6349 208.5137,64.0879 C209.1137,64.5319 209.9537,65.0859 210.9727,65.7549 C214.8767,67.9699 219.2367,69.2619 223.7177,69.5309 L220.8387,72.4209 L210.1037,83.1449 C209.2887,83.9169 208.8317,84.9939 208.8437,86.1169 C208.8257,87.2299 209.2847,88.2969 210.1037,89.0499 L210.5837,89.5719 C211.3547,90.3609 212.4187,90.7949 213.5227,90.7709 C214.6327,90.7839 215.7017,90.3519 216.4907,89.5719 L227.1967,78.8089 C232.5647,84.1629 236.1437,87.7499 237.9327,89.5719 C238.7217,90.3519 239.7907,90.7839 240.9007,90.7709 C242.0127,90.7959 243.0867,90.3619 243.8697,89.5719 L244.3497,89.0499 C245.1477,88.2849 245.5937,87.2229 245.5797,86.1169 C245.5887,85.0009 245.1447,83.9289 244.3497,83.1449 L233.6437,72.4209 L230.7057,69.5309 C235.1557,69.2489 239.4837,67.9579 243.3607,65.7549 C244.4097,65.0859 245.2197,64.5319 245.8187,64.0879 C246.4287,63.6349 246.9997,63.1329 247.5287,62.5879 C247.9907,62.1529 248.3587,61.6259 248.6077,61.0409 C248.7627,60.5139 248.8237,59.9639 248.7877,59.4159 C248.6967,58.7249 248.4947,58.0529 248.1887,57.4269 C247.9087,56.8859 247.5207,56.4069 247.0487,56.0209 L247.0487,56.0209 Z M236.1327,37.0239 C236.1117,41.9649 232.1077,45.9649 227.1667,45.9809 C222.2127,45.9829 218.1957,41.9679 218.1937,37.0149 C218.1927,32.0609 222.2067,28.0439 227.1607,28.0419 C232.1147,28.0399 236.1307,32.0549 236.1327,37.0089 L236.1327,37.0239 Z M245.3997,37.0239 C245.4197,26.9559 237.2737,18.7779 227.2057,18.7579 C217.1377,18.7379 208.9597,26.8829 208.9397,36.9509 C208.9197,47.0189 217.0657,55.1969 227.1337,55.2169 C231.9817,55.2269 236.6337,53.3049 240.0617,49.8759 C243.5367,46.5119 245.4687,41.8609 245.3997,37.0239 L245.3997,37.0239 Z" id="Fill-11" fill="#00B2DD"></path>
        </g>
    </g>
</svg>