<?xml version="1.0" encoding="UTF-8" standalone="no"?>
<svg width="220px" height="178px" viewBox="0 0 220 178" version="1.1" xmlns="http://www.w3.org/2000/svg" xmlns:xlink="http://www.w3.org/1999/xlink">
    <!-- Generator: Sketch 3.7.2 (28276) - http://www.bohemiancoding.com/sketch -->
    <title>login-squere</title>
    <desc>Created with Sketch.</desc>
    <defs></defs>
    <g id="Page-1" stroke="none" stroke-width="1" fill="none" fill-rule="evenodd">
        <g id="login-squere" transform="translate(0.000000, 3.000000)">
            <path d="M124.7512,24.8896 C125.0142,24.5116 125.4222,24.2716 125.9732,24.1686 C126.5242,24.0656 127.0802,24.0136 127.6422,24.0136 C128.2042,24.0136 128.8352,24.0376 129.5352,24.0826 C130.2352,24.1286 130.7342,24.1396 131.0322,24.1166 C131.4912,24.1626 132.3972,24.1166 133.7512,23.9796 C135.1052,23.8426 136.2172,23.8766 137.0902,24.0826 C137.9612,24.2886 138.6502,24.8156 139.1552,25.6626 C141.8852,31.4996 144.2942,35.8376 146.3822,38.6756 C146.4512,38.8366 146.5312,39.0076 146.6232,39.1906 C147.2432,40.2436 148.0112,41.0226 148.9292,41.5256 C150.2142,42.2126 151.0522,41.8006 151.4422,40.2896 C152.2132,36.5126 152.2822,32.6216 151.6482,28.6156 C151.7662,27.9746 151.5662,27.4136 151.0502,26.9326 C150.5342,26.4516 149.9772,26.1086 149.3812,25.9026 C148.7842,25.6966 148.3362,25.4046 148.0382,25.0266 C147.7402,24.6496 147.8662,24.2426 148.4172,23.8076 C149.1052,23.3276 149.8922,22.9666 150.7782,22.7266 C151.6632,22.4856 152.5282,22.3606 153.3732,22.3486 C154.2172,22.3376 155.1202,22.3266 156.0822,22.3146 C157.0442,22.3026 157.9362,22.2856 158.7572,22.2626 C158.8032,22.2626 159.2492,22.2746 160.0942,22.2976 C160.9392,22.3206 161.4902,22.3546 161.7482,22.4006 C162.0062,22.4466 162.4402,22.5266 163.0502,22.6406 C163.6602,22.7556 164.1532,22.9326 164.5282,23.1726 C164.9042,23.4126 165.2322,23.7276 165.5132,24.1166 C165.9822,25.1246 166.2292,26.2406 166.2522,27.4646 C166.2742,28.6896 166.1932,30.0456 166.0062,31.5336 C165.8182,33.0216 165.7362,34.1776 165.7602,35.0016 C165.6422,35.8716 165.6312,36.8786 165.7242,38.0236 C165.8182,39.1686 166.1202,40.1296 166.6312,40.9076 C166.9062,41.3656 167.2392,41.6116 167.6292,41.6456 C168.0192,41.6806 168.4152,41.5486 168.8162,41.2506 C169.2182,40.9536 169.5742,40.6336 169.8832,40.2896 C170.1932,39.9466 170.4632,39.5916 170.6922,39.2256 C172.1832,37.3706 173.4972,35.3746 174.6332,33.2336 C175.7692,31.0936 176.9792,28.5466 178.2642,25.5936 C178.8372,24.7236 179.6002,24.1856 180.5532,23.9796 C181.5052,23.7736 182.7042,23.7506 184.1492,23.9106 C185.5952,24.0716 186.5702,24.1286 187.0752,24.0826 C187.5572,24.1516 188.2912,24.1456 189.2782,24.0656 C190.2642,23.9856 191.1242,23.9226 191.8592,23.8766 C192.5932,23.8306 193.2932,23.9796 193.9592,24.3226 C194.6242,24.6666 195.0262,25.2386 195.1632,26.0396 C194.8882,27.2986 194.4062,28.5926 193.7182,29.9196 C193.0292,31.2476 192.3752,32.3296 191.7562,33.1646 C191.1362,34.0006 190.2532,35.1276 189.1062,36.5466 C187.9582,37.9666 187.1552,38.9966 186.6962,39.6376 C186.6282,39.7056 186.3122,40.0956 185.7502,40.8046 C185.1882,41.5146 184.8212,42.0126 184.6482,42.2986 C184.4762,42.5846 184.2532,43.0256 183.9772,43.6206 C183.7022,44.2156 183.5992,44.7656 183.6682,45.2686 C183.7372,45.7726 183.9432,46.2646 184.2872,46.7446 C184.9292,47.4546 186.1802,48.6966 188.0392,50.4706 C189.8972,52.2446 191.2622,53.6806 192.1342,54.7796 C192.2952,55.0086 192.6052,55.4036 193.0642,55.9646 C193.5222,56.5256 193.8842,57.0066 194.1482,57.4066 C194.4112,57.8076 194.6642,58.2706 194.9052,58.7976 C195.1462,59.3236 195.2202,59.8336 195.1292,60.3256 C195.0372,60.8176 194.7852,61.2696 194.3722,61.6816 C193.2702,62.2306 191.9282,62.5226 190.3452,62.5566 C188.7612,62.5916 187.3622,62.5396 186.1462,62.4026 C184.9292,62.2656 183.5532,62.4146 182.0162,62.8486 C179.4002,62.5746 176.6002,60.7316 173.6182,57.3206 C173.5032,57.1836 173.2392,56.8456 172.8262,56.3076 C172.4132,55.7696 172.0912,55.3756 171.8622,55.1236 C171.6332,54.8716 171.3002,54.5516 170.8642,54.1616 C170.4282,53.7726 170.0382,53.5216 169.6942,53.4066 C169.3502,53.2916 168.9542,53.2636 168.5072,53.3206 C168.0592,53.3776 167.6292,53.5896 167.2162,53.9556 C166.8262,54.4826 166.5672,55.2496 166.4422,56.2566 C166.3152,57.2636 166.2462,58.1736 166.2342,58.9856 C166.2232,59.7986 165.9822,60.5426 165.5132,61.2176 C165.0452,61.8936 164.3052,62.2886 163.2972,62.4026 C159.6622,62.7236 156.1232,62.4196 152.6822,61.4926 C149.2392,60.5656 146.2792,58.9916 143.8012,56.7716 C141.1852,54.3906 138.8052,51.6956 136.6602,48.6846 C134.5142,45.6756 132.3062,42.1786 130.0342,38.1956 C129.7122,37.5546 129.0822,36.3696 128.1412,34.6416 C127.2002,32.9126 126.4492,31.4256 125.8872,30.1776 C125.3242,28.9296 124.8832,27.6766 124.5622,26.4176 C124.4242,25.7766 124.4872,25.2676 124.7512,24.8896" id="Fill-9" fill="#00B2DD"></path>
            <path d="M23.8845,100.0865 C23.8845,100.5915 24.0815,101.0665 24.4385,101.4235 L28.0045,104.9915 C28.3625,105.3485 28.8375,105.5455 29.3425,105.5455 C29.8485,105.5455 30.3225,105.3485 30.6805,104.9915 L48.5615,87.1105 C48.9185,86.7535 49.1155,86.2775 49.1155,85.7725 C49.1155,85.2685 48.9185,84.7925 48.5615,84.4355 L30.6805,66.5545 C30.3235,66.1975 29.8485,66.0005 29.3435,66.0005 C28.8375,66.0005 28.3635,66.1975 28.0065,66.5545 L24.4385,70.1215 C24.0815,70.4785 23.8855,70.9535 23.8855,71.4585 C23.8855,71.9645 24.0815,72.4385 24.4395,72.7955 L33.0025,81.3595 L1.8915,81.3595 C0.8485,81.3595 0.0005,82.2085 0.0005,83.2505 L0.0005,88.2955 C0.0005,89.3385 0.8485,90.1865 1.8915,90.1865 L33.0015,90.1865 L24.4385,98.7495 C24.0815,99.1065 23.8845,99.5815 23.8845,100.0865" id="Fill-1" fill="#00B2DD"></path>
            <path d="M153.742,118.324 L153.742,151.322 L166.339,151.322 L166.339,118.324 L178.695,118.324 L179.28,106.443 L166.339,106.443 L166.339,98.306 L166.339,97.756 C166.339,95.948 166.671,94.62 167.337,93.773 C168.002,92.927 169.333,92.503 171.329,92.503 C173.968,92.503 176.504,92.515 178.936,92.537 L179.211,81.446 L178.179,81.343 C177.49,81.275 176.446,81.2 175.047,81.12 C173.647,81.04 172.236,81 170.813,81 C167.945,81 165.393,81.418 163.155,82.253 C160.918,83.089 159.128,84.228 157.786,85.67 C156.444,87.112 155.434,88.731 154.757,90.528 C154.08,92.326 153.742,94.243 153.742,96.28 L153.742,106.443 L145,106.443 L145,118.324 L153.742,118.324 Z" id="Fill-5-Copy" fill="#00B2DD"></path>
            <path d="M79.15,151.363 C82.361,151.363 85.429,150.997 88.353,150.265 C91.277,149.534 93.914,148.515 96.263,147.21 C98.612,145.904 100.787,144.362 102.79,142.582 C104.792,140.802 106.516,138.859 107.963,136.753 C109.41,134.646 110.644,132.432 111.665,130.108 C112.686,127.784 113.45,125.421 113.955,123.018 C114.461,120.615 114.713,118.237 114.713,115.883 C114.713,115.527 114.694,114.993 114.654,114.281 C117.152,112.501 119.233,110.356 120.898,107.844 C118.579,108.852 116.19,109.505 113.732,109.802 C116.428,108.2 118.252,105.896 119.204,102.89 C116.725,104.354 114.089,105.362 111.294,105.916 C108.835,103.305 105.793,102 102.165,102 C98.716,102 95.772,103.216 93.334,105.649 C90.895,108.081 89.676,111.018 89.676,114.459 C89.676,115.369 89.785,116.309 90.003,117.277 C84.889,117.021 80.102,115.745 75.641,113.451 C71.181,111.157 67.385,108.091 64.253,104.254 C63.123,106.193 62.558,108.289 62.558,110.543 C62.558,112.679 63.058,114.657 64.059,116.476 C65.06,118.296 66.413,119.769 68.118,120.897 C66.116,120.837 64.223,120.323 62.439,119.354 L62.439,119.502 C62.439,122.509 63.39,125.149 65.293,127.423 C67.196,129.698 69.585,131.131 72.46,131.725 C71.409,132.021 70.319,132.17 69.189,132.17 C68.455,132.17 67.672,132.091 66.84,131.932 C67.632,134.444 69.099,136.506 71.24,138.117 C73.381,139.73 75.8,140.555 78.496,140.594 C73.956,144.154 68.782,145.934 62.974,145.934 C61.982,145.934 60.991,145.875 60,145.756 C65.848,149.494 72.231,151.363 79.15,151.363" id="Fill-7" fill="#00B2DD"></path>
            <path d="M109.498627,54.2630368 C109.004627,53.8570368 108.433627,53.5560368 107.818627,53.3780368 C107.076627,53.1950368 106.297627,53.2230368 105.569627,53.4590368 C104.613627,53.7460368 103.726627,54.2250368 102.960627,54.8660368 L101.431627,55.8700368 C99.9216272,56.7620368 98.2976272,57.4440368 96.6036272,57.8980368 C94.3396272,58.5870368 91.9836272,58.9330368 89.6166272,58.9230368 C88.0966272,58.9240368 86.5796272,58.7750368 85.0886272,58.4790368 C83.8366272,58.2510368 82.6036272,57.9290368 81.3996272,57.5170368 C80.4416272,57.1770368 79.5096272,56.7670368 78.6106272,56.2900368 C77.7406272,55.8220368 77.1706272,55.4940368 76.9016272,55.3070368 L76.2716272,54.8660368 C75.5066272,54.2250368 74.6196272,53.7460368 73.6626272,53.4590368 C72.9356272,53.2230368 72.1566272,53.1950368 71.4136272,53.3780368 C70.7996272,53.5560368 70.2286272,53.8570368 69.7346272,54.2630368 C69.2706272,54.6500368 68.8936272,55.1290368 68.6246272,55.6690368 C68.2916272,56.2840368 68.0876272,56.9610368 68.0256272,57.6580368 C67.9596272,58.2060368 68.0216272,58.7620368 68.2056272,59.2830368 C68.4306272,59.8730368 68.7906272,60.4030368 69.2546272,60.8300368 C69.7836272,61.3750368 70.3546272,61.8770368 70.9636272,62.3300368 C71.5636272,62.7740368 72.4036272,63.3280368 73.4226272,63.9970368 C77.3266272,66.2120368 81.6866272,67.5040368 86.1676272,67.7730368 L83.2886272,70.6630368 L72.5536272,81.3870368 C71.7386272,82.1590368 71.2816272,83.2360368 71.2936272,84.3590368 C71.2756272,85.4720368 71.7346272,86.5390368 72.5536272,87.2920368 L73.0336272,87.8140368 C73.8046272,88.6030368 74.8686272,89.0370368 75.9726272,89.0130368 C77.0826272,89.0260368 78.1516272,88.5940368 78.9406272,87.8140368 L89.6466272,77.0510368 C95.0146272,82.4050368 98.5936272,85.9920368 100.382627,87.8140368 C101.171627,88.5940368 102.240627,89.0260368 103.350627,89.0130368 C104.462627,89.0380368 105.536627,88.6040368 106.319627,87.8140368 L106.799627,87.2920368 C107.597627,86.5270368 108.043627,85.4650368 108.029627,84.3590368 C108.038627,83.2430368 107.594627,82.1710368 106.799627,81.3870368 L96.0936272,70.6630368 L93.1556272,67.7730368 C97.6056272,67.4910368 101.933627,66.2000368 105.810627,63.9970368 C106.859627,63.3280368 107.669627,62.7740368 108.268627,62.3300368 C108.878627,61.8770368 109.449627,61.3750368 109.978627,60.8300368 C110.440627,60.3950368 110.808627,59.8680368 111.057627,59.2830368 C111.212627,58.7560368 111.273627,58.2060368 111.237627,57.6580368 C111.146627,56.9670368 110.944627,56.2950368 110.638627,55.6690368 C110.358627,55.1280368 109.970627,54.6490368 109.498627,54.2630368 L109.498627,54.2630368 Z M98.5826272,35.2660368 C98.5616272,40.2070368 94.5576272,44.2070368 89.6166272,44.2230368 C84.6626272,44.2250368 80.6456272,40.2100368 80.6436272,35.2570368 C80.6426272,30.3030368 84.6566272,26.2860368 89.6106272,26.2840368 C94.5646272,26.2820368 98.5806272,30.2970368 98.5826272,35.2510368 L98.5826272,35.2660368 Z M107.849627,35.2660368 C107.869627,25.1980368 99.7236272,17.0200368 89.6556272,17.0000368 C79.5876272,16.9800368 71.4096272,25.1250368 71.3896272,35.1930368 C71.3696272,45.2610368 79.5156272,53.4390368 89.5836272,53.4590368 C94.4316272,53.4690368 99.0836272,51.5470368 102.511627,48.1180368 C105.986627,44.7540368 107.918627,40.1030368 107.849627,35.2660368 L107.849627,35.2660368 Z" id="Fill-11" fill="#00B2DD"></path>
            <path d="M30.558,115.8645 L30.558,156.9905 C30.558,165.0295 37.074,171.5465 45.113,171.5465 L202.361,171.5465 C210.4,171.5465 216.917,165.0295 216.917,156.9905 L216.917,14.5555 C216.917,6.5165 210.4,0.0005 202.361,0.0005 L45.113,0.0005 C37.074,0.0005 30.558,6.5165 30.558,14.5555 L30.558,55.6815" id="Stroke-3" stroke="#00B2DD" stroke-width="6" stroke-linecap="round" stroke-linejoin="round"></path>
        </g>
    </g>
</svg>