<svg xmlns="http://www.w3.org/2000/svg" width="14.4" height="24" viewBox="0 0 14.4 24">
    <path d="M1917.15 144.485a6.079 6.079 0 1 0-1.78 4.286 5.849 5.849 0 0 0 1.78-4.286zm-3.09 0a3 3 0 0 1-2.99 2.987 2.991 2.991 0 1 1 2.99-2.987zm3.64 6.335a1.567 1.567 0 0 0-.56-.295 1.364 1.364 0 0 0-.75.027 2.452 2.452 0 0 0-.87.469l-.51.335a6.45 6.45 0 0 1-1.61.676 7.885 7.885 0 0 1-2.33.342 7.73 7.73 0 0 1-1.51-.148 8.494 8.494 0 0 1-1.23-.321 6.944 6.944 0 0 1-.93-.409q-.435-.234-.57-.328l-.21-.147a2.452 2.452 0 0 0-.87-.469 1.364 1.364 0 0 0-.75-.027 1.567 1.567 0 0 0-.56.295 1.452 1.452 0 0 0-.37.469 1.713 1.713 0 0 0-.2.663 1.2 1.2 0 0 0 .06.542 1.363 1.363 0 0 0 .35.516 4.722 4.722 0 0 0 .57.5c.2.148.48.333.82.556a9.8 9.8 0 0 0 4.25 1.259l-.96.964-3.58 3.576a1.345 1.345 0 0 0-.42.991 1.3 1.3 0 0 0 .42.978l.16.174a1.329 1.329 0 0 0 .98.4 1.385 1.385 0 0 0 .99-.4l3.57-3.589q2.685 2.678 3.58 3.589a1.385 1.385 0 0 0 .99.4 1.352 1.352 0 0 0 .99-.4l.16-.174a1.331 1.331 0 0 0 .41-.978 1.375 1.375 0 0 0-.41-.991l-3.57-3.576-.98-.964a9.793 9.793 0 0 0 4.22-1.259c.35-.223.62-.408.82-.556a4.722 4.722 0 0 0 .57-.5 1.537 1.537 0 0 0 .36-.516 1.557 1.557 0 0 0 .06-.542 2.146 2.146 0 0 0-.2-.663 1.484 1.484 0 0 0-.38-.469z" transform="translate(-1903.88 -138.406)"/>
</svg>
