<svg xmlns="http://www.w3.org/2000/svg" width="21.1" height="17.125" viewBox="0 0 21.1 17.125"><path d="M1844.71 144.539a4.227 4.227 0 0 0 1.9-2.384 8.545 8.545 0 0 1-2.75 1.044 4.322 4.322 0 0 0-7.48 2.96 4.879 4.879 0 0 0 .1.991 12.021 12.021 0 0 1-4.97-1.332 12.274 12.274 0 0 1-3.95-3.194 4.264 4.264 0 0 0-.59 2.183 4.372 4.372 0 0 0 1.93 3.6 4.261 4.261 0 0 1-1.95-.549v.054a4.156 4.156 0 0 0 .98 2.752 4.28 4.28 0 0 0 2.49 1.493 4.5 4.5 0 0 1-1.14.148 5.557 5.557 0 0 1-.82-.067 4.262 4.262 0 0 0 1.53 2.136 4.211 4.211 0 0 0 2.51.864 8.464 8.464 0 0 1-5.37 1.848 9.119 9.119 0 0 1-1.04-.054 12 12 0 0 0 6.64 1.942 12.65 12.65 0 0 0 4.33-.73 10.881 10.881 0 0 0 3.45-1.955 12.914 12.914 0 0 0 2.47-2.819 12.423 12.423 0 0 0 2.06-6.8c0-.25 0-.437-.01-.562a9.248 9.248 0 0 0 2.17-2.237 8.609 8.609 0 0 1-2.49.67z" transform="translate(-1826.09 -141.844)"/></svg>
