<svg xmlns="http://www.w3.org/2000/svg" width="23.47" height="24" viewBox="0 0 23.47 24"><path d="M1957.32 147.8a.947.947 0 0 0 .39 1.043.861.861 0 0 0 .65.023.872.872 0 0 0 .35-.384 6.017 6.017 0 0 0 .01-1.441 7.8 7.8 0 0 0-1.24-3.433 7.477 7.477 0 0 0-5.36-3.213c-.93-.139-1.24-.089-1.44.225a.7.7 0 0 0 .06.876.976.976 0 0 0 .73.275 7.381 7.381 0 0 1 2.98.9 5.856 5.856 0 0 1 2.16 2.251 6.207 6.207 0 0 1 .71 2.878zm-2.53-3.557a3.681 3.681 0 0 0-1.85-.922 4.919 4.919 0 0 0-.66-.081.821.821 0 0 0-.53.062.726.726 0 0 0-.22 1.085 1.006 1.006 0 0 0 .78.294 2.19 2.19 0 0 1 1.95 1.236 3.636 3.636 0 0 1 .31 1.248.821.821 0 0 0 .28.686.754.754 0 0 0 .91-.02 1.165 1.165 0 0 0 .18-1.185 3.829 3.829 0 0 0-1.15-2.407zm-4.93-5.483a1.652 1.652 0 0 0 1.03.2 9.432 9.432 0 0 1 5.45 1.925 9.242 9.242 0 0 1 3.59 5.984 13.618 13.618 0 0 1 .22 2.015 1.847 1.847 0 0 0 .11.8.715.715 0 0 0 1.16.108 1.292 1.292 0 0 0 .15-1.023 13.19 13.19 0 0 0-1.26-5.312 9.418 9.418 0 0 0-1.98-2.717 9.762 9.762 0 0 0-2.89-2.089 10.785 10.785 0 0 0-3.59-1.065c-.26-.031-.75-.07-1.08-.082a1.1 1.1 0 0 0-.94.171.758.758 0 0 0 .03 1.081zm-7.05 12.24a30.744 30.744 0 0 0 13.23 10.191 2.724 2.724 0 0 0 1.46.307 3.115 3.115 0 0 0 1.87-.772 8.6 8.6 0 0 0 2.18-2.72 1.772 1.772 0 0 0-.2-1.833 29.157 29.157 0 0 0-2.71-2.208 22.458 22.458 0 0 0-1.96-1.217 2.06 2.06 0 0 0-1.66-.151 2.37 2.37 0 0 0-1.21 1.065c-.32.4-.62.767-.66.8a1.966 1.966 0 0 1-.3.171c-.51.236-1.21.093-2.34-.473a10.636 10.636 0 0 1-2.55-1.806 11.631 11.631 0 0 1-1.95-2.29 6.452 6.452 0 0 1-.97-2.724 1.8 1.8 0 0 1 .25-.876 6.536 6.536 0 0 1 .77-.686 2.793 2.793 0 0 0 1.24-1.414 2.434 2.434 0 0 0-.39-1.713 18.934 18.934 0 0 0-3.45-4.421 2.509 2.509 0 0 0-.47-.233 2.126 2.126 0 0 0-.97-.089 5.6 5.6 0 0 0-1.83 1.1 8.827 8.827 0 0 0-1.62 1.581c-.45.771-.42 1.426.13 2.933a28.981 28.981 0 0 0 4.11 7.478z" transform="translate(-1938.25 -137.5)"/></svg>
