<svg xmlns="http://www.w3.org/2000/svg" width="25.72" height="14.657" viewBox="0 0 25.72 14.657"><path d="M1807.09 144.235a.762.762 0 0 0-.41-.221 2.109 2.109 0 0 0-.86-.033l-3.86.026a1.078 1.078 0 0 0-.26.007.89.89 0 0 0-.18.04c-.02.014-.05.025-.06.034l-.06.04a.9.9 0 0 0-.15.141 1.231 1.231 0 0 0-.13.234 22.554 22.554 0 0 1-1.43 3.013c-.33.554-.64 1.034-.91 1.44a6.9 6.9 0 0 1-.7.9 5.065 5.065 0 0 1-.51.462.49.49 0 0 1-.35.148c-.08-.018-.15-.036-.22-.054a.9.9 0 0 1-.31-.328 1.686 1.686 0 0 1-.15-.522c-.03-.21-.04-.391-.05-.543s0-.366.01-.642.01-.465.01-.563c0-.339.01-.708.02-1.105s.03-.712.04-.944.01-.478.01-.737a3.136 3.136 0 0 0-.05-.609 1.683 1.683 0 0 0-.14-.429.7.7 0 0 0-.27-.321 1.536 1.536 0 0 0-.45-.181 8.93 8.93 0 0 0-1.81-.174 8.775 8.775 0 0 0-3.2.321 1.778 1.778 0 0 0-.51.4c-.16.2-.18.3-.07.322a1.627 1.627 0 0 1 1.14.576l.08.16a2.162 2.162 0 0 1 .19.616 6.845 6.845 0 0 1 .12.978 9.294 9.294 0 0 1 0 1.674c-.04.464-.09.826-.13 1.085a2.164 2.164 0 0 1-.18.629 2.189 2.189 0 0 1-.16.295.245.245 0 0 1-.06.067 1.032 1.032 0 0 1-.37.067.848.848 0 0 1-.45-.188 3.412 3.412 0 0 1-.56-.515 6.979 6.979 0 0 1-.65-.918q-.36-.588-.75-1.392l-.21-.389c-.13-.25-.32-.614-.55-1.091s-.44-.94-.62-1.386a.831.831 0 0 0-.32-.429l-.06-.04a1.035 1.035 0 0 0-.22-.114 1.451 1.451 0 0 0-.31-.087l-3.67.027a.928.928 0 0 0-.76.254l-.05.08a.4.4 0 0 0-.04.215.926.926 0 0 0 .08.361c.53 1.259 1.12 2.474 1.74 3.643s1.18 2.112 1.65 2.826.93 1.389 1.42 2.022.8 1.041.95 1.219.28.313.37.4l.34.321a7.113 7.113 0 0 0 .94.77 15.71 15.71 0 0 0 1.38.884 7.346 7.346 0 0 0 1.76.71 6.09 6.09 0 0 0 1.96.221h1.54a1.073 1.073 0 0 0 .71-.294l.05-.067a.761.761 0 0 0 .1-.248 1.417 1.417 0 0 0 .05-.368 4.779 4.779 0 0 1 .08-1.038 3.089 3.089 0 0 1 .23-.7 1.779 1.779 0 0 1 .29-.4 1.081 1.081 0 0 1 .23-.194c.04-.022.08-.038.1-.047a.854.854 0 0 1 .76.208 4.6 4.6 0 0 1 .82.776c.25.308.56.655.92 1.038a5.822 5.822 0 0 0 .93.857l.27.161a3.226 3.226 0 0 0 .7.295 1.5 1.5 0 0 0 .75.067l3.43-.054a1.578 1.578 0 0 0 .79-.167.7.7 0 0 0 .33-.368.99.99 0 0 0 .01-.456 1.58 1.58 0 0 0-.1-.355c-.03-.067-.06-.122-.08-.167a13.424 13.424 0 0 0-2.56-2.96l-.03-.027-.01-.013-.01-.014h-.02a14.759 14.759 0 0 1-1.08-1.1 1.029 1.029 0 0 1-.19-1.085 10.576 10.576 0 0 1 1.2-1.754c.37-.473.66-.853.88-1.138q2.31-3.081 2-3.938z" transform="translate(-1781.5 -143.312)"/></svg>
