<?xml version="1.0" encoding="UTF-8"?>
<svg width="200px" height="64px" viewBox="0 0 200 64" version="1.1" xmlns="http://www.w3.org/2000/svg" xmlns:xlink="http://www.w3.org/1999/xlink">
    <!-- Generator: Sketch 39 (31667) - http://www.bohemiancoding.com/sketch -->
    <title>knauf</title>
    <desc>Created with Sketch.</desc>
    <defs>
        <polygon id="path-1" points="0.362479784 55.5256065 86.6334232 55.5256065 86.6334232 0.103665768 0.362479784 0.103665768 0.362479784 55.5256065"></polygon>
        <polygon id="path-3" points="0 0.277250674 0 32.1063612 105.650917 32.1063612 105.650917 0.277250674 0 0.277250674"></polygon>
    </defs>
    <g id="Page-1" stroke="none" stroke-width="1" fill="none" fill-rule="evenodd">
        <g id="knauf">
            <path d="M174.034501,63.5312668 L175.775202,52.2595687 C173.433423,53.1415094 171.114825,53.1247978 169.966038,53.1296496 C169.527224,53.1296496 169.069003,53.1172507 168.605391,53.0973046 C166.880863,53.0245283 165.341779,52.7026954 164.016712,52.1199461 L164.002695,52.3533693 L104.936927,52.4202156 L105.153639,50.9075472 C102.901348,52.2401617 100.026415,53.0536388 96.497035,53.0509434 C93.3045822,53.0520216 90.6,52.3959569 88.484097,51.041779 L88.2819407,52.4169811 L84.9940701,52.4169811 L76.7946092,52.4169811 L72.3865229,52.4169811 L72.6269542,50.7862534 C70.7045822,52.1366577 68.3401617,52.7954178 65.5913747,52.7873315 C64.7137466,52.7862534 63.7234501,52.667655 62.7509434,52.4169811 L36.5331536,52.4169811 L36.6927224,51.3366577 C34.6226415,52.3247978 32.1018868,52.906469 29.1115903,52.9059299 C24.6754717,52.912938 21.1644205,51.628841 18.896496,48.9932615 C18.8005391,48.8816712 18.7067385,48.7673854 18.6156334,48.6514825 L18.0630728,52.4169811 L2.16981132,52.4169811 L5.69326146,28.4536388 L0,28.4536388 L2.00053908,14.3894879 L28.1892183,14.3894879 C29.8264151,13.8897574 31.6867925,13.6110512 33.7800539,13.6110512 C37.0285714,13.609434 39.7703504,14.2929919 41.8991914,15.6983827 L42.0911051,14.3894879 L55.8555256,14.3894879 C56.9919137,13.9867925 58.2851752,13.7533693 59.7504043,13.7544474 C63.1973046,13.7442049 65.3320755,15.2816712 66.4431267,16.5760108 C66.5423181,16.6897574 66.6377358,16.8072776 66.7304582,16.9269542 C66.8700809,15.9619946 66.9994609,15.0730458 66.9994609,15.0714286 L67.0981132,14.3894879 L93.8382749,14.3894879 L93.7126685,15.2369272 C95.7574124,14.3010782 98.2334232,13.7528302 101.16496,13.7544474 C104.845283,13.7495957 107.887332,14.6347709 110.108895,16.4471698 L112.401617,0.5 L126.607008,0.5 L124.669542,14.4708895 L199.966577,14.4708895 L196.469003,37.9814016 L192.647439,37.9814016 L188.651213,62.8622642 L188.543396,63.5312668 L174.034501,63.5312668 Z" id="Combined-Shape" fill="#F48B64"></path>
            <path d="M175.891267,61.9403235 L187.187224,61.9403235 L191.291806,36.3904582 L195.096119,36.3904582 L198.120916,16.0621563 L122.841671,16.0621563 L124.779137,2.09018868 L113.780216,2.09018868 L111.21903,19.9128302 L110.079407,18.621186 C108.192615,16.4853369 105.260539,15.3511051 101.164582,15.3451752 C97.7554178,15.3462534 95.1214555,16.1322372 93.1095957,17.3548787 L91.6583827,18.2378976 L91.9074394,16.5586523 L91.9926146,15.9812938 L68.4756334,15.9812938 C68.3187601,17.0594609 68.0260377,19.0783288 67.9645822,19.4907278 L66.4319677,19.6513747 C66.1451752,18.8826415 65.7462534,18.2012399 65.2411321,17.6201078 C64.3349326,16.5942318 62.7219946,15.3548787 59.750566,15.3451752 C58.3980054,15.3462534 57.2578437,15.5661995 56.2702426,15.931159 L56.1365499,15.9812938 L43.4659299,15.9802156 L43.0648518,18.7160647 L41.9640431,17.7451752 C40.0874933,16.0901887 37.3796765,15.2044744 33.7796765,15.2033962 C31.7796765,15.2033962 30.0454447,15.4740162 28.5484097,15.9451752 L28.4325067,15.9812938 L3.38237197,15.9802156 L1.83466307,26.8626954 L7.5354717,26.8626954 L4.01256065,50.8260377 L16.6869542,50.8260377 L17.7484097,43.6007008 L18.8697035,46.0319677 C19.1926146,46.7338544 19.6028571,47.375903 20.1020485,47.9554178 C21.9936927,50.1457143 24.9538005,51.3074394 29.111752,51.3144474 C32.5850674,51.3122911 35.2583827,50.4810243 37.2874933,49.1915364 L38.7554178,48.2578437 L38.3780593,50.8260377 L62.9597305,50.8260377 L63.06,50.8519137 C63.9187601,51.0837197 64.8352022,51.1963881 65.5915364,51.19531 C68.9009704,51.1850674 71.2945013,50.2184906 73.1451752,48.2179515 L74.8939623,46.3144474 L74.2298113,50.8260377 L76.7942318,50.8260377 L84.9942318,50.8260377 L86.9058221,50.8260377 L87.3106739,48.0767116 L88.4044744,49.008248 C90.2799461,50.6050135 92.9591914,51.4583827 96.4971968,51.4594609 C100.592615,51.4567655 103.572129,50.3047439 105.699892,48.5990836 L107.270243,47.3387062 L106.772129,50.8271159 L162.503666,50.763504 L162.58345,49.4643127 L163.717143,50.1683558 C164.979677,50.9543396 166.629272,51.4201078 168.674016,51.5058221 C169.123612,51.5263073 169.56027,51.5387062 169.966199,51.5387062 C171.314987,51.5446361 174.091267,51.5192992 176.398544,50.2233423 L177.821186,49.4254987 L175.891267,61.9403235 Z" id="Fill-5" fill="#FFFFFF"></path>
            <g id="Group-3" transform="translate(108.894879, 4.209164)">
                <mask id="mask-2" fill="white">
                    <use xlink:href="#path-1"></use>
                </mask>
                <g id="Clip-2"></g>
                <path d="M47.6988679,19.7387062 L48.2201617,17.5009704 L47.8767655,19.8001617 L47.8050674,20.3990836 L46.3403774,33.3624259 L44.3074933,33.3618868 L47.5554717,20.3171429 L47.6988679,19.7387062 Z M35.1463073,44.3484097 L41.5748787,44.3484097 L43.0584367,38.4104043 L45.7678706,38.4104043 L45.1047978,44.3484097 L51.4481941,44.3484097 L53.2066846,14.0104043 L44.4201617,14.0104043 L35.1463073,44.3484097 Z M85.9856604,18.8734771 L86.6336388,14.0756334 L75.9031806,14.0756334 L69.5074933,55.5257682 L76.3355256,55.5257682 L80.4395687,29.9769811 L84.2341779,29.9769811 L85.008841,24.9106739 L81.1069542,24.9106739 L81.976496,18.8734771 L85.9856604,18.8734771 Z M66.6029111,14.0966577 L62.5786523,39.2244205 C62.5069542,39.6422102 62.1344474,40.2308895 61.370566,40.0761725 C60.757628,39.956496 60.5818868,39.2945013 60.6535849,38.9473315 L64.6158491,14.0756334 L57.8977898,14.092345 C56.9355256,21.1036658 55.608841,29.3732075 53.9220485,38.8971968 C53.6897035,40.7214555 53.6233962,44.8298113 59.8034501,45.0961186 C65.6918598,45.350027 68.5101887,43.8368194 69.183504,39.5322372 L73.2115364,14.0901887 L66.6029111,14.0966577 Z M32.4077628,14.0756334 L30.4126146,26.6249596 L30.0897035,28.5365499 L30.1231267,27.0254987 L30.1091105,26.6384367 L29.6595148,14.0756334 L22.5484636,14.0756334 L17.9597844,44.4136388 L23.8169272,44.4136388 L25.9597844,30.4788679 L26.228248,28.5365499 L26.2056065,30.0723989 L26.2207008,30.4389757 L26.8746092,44.4136388 L33.2870081,44.4136388 L37.8762264,14.0756334 L32.4077628,14.0756334 Z M20.5592453,14.0756334 L14.1527763,14.0756334 L10.1403774,24.8583827 L9.9883558,25.266469 L9.54522911,26.718221 L9.7915903,25.1128302 L9.85142857,24.7656604 L13.2746092,0.103665768 L6.73175202,0.103665768 L0.362479784,44.4136388 L7.12366577,44.4136388 L8.86706199,31.8675472 L8.91396226,31.5187601 L9.11504043,29.9915364 L9.13983827,32.0804852 L9.16787062,32.769973 L9.76032345,44.4136388 L16.4595148,44.4136388 L14.6039892,28.1883019 L20.5592453,14.0756334 Z" id="Fill-1" fill="#00ADEF" mask="url(#mask-2)"></path>
            </g>
            <g id="Group-6" transform="translate(4.312668, 17.147170)">
                <mask id="mask-4" fill="white">
                    <use xlink:href="#path-3"></use>
                </mask>
                <g id="Clip-5"></g>
                <path d="M55.3668464,0.4206469 C52.2444744,0.4206469 50.3819407,1.84814016 48.5021563,4.44167116 L48.3959569,4.44167116 L48.8768194,1.0567655 L40.9943396,1.0567655 L36.5549865,31.4723989 L44.7539084,31.4723989 L47.7867925,10.6826415 C47.9247978,9.94247978 48.2304582,7.77266846 50.0800539,7.77266846 C51.9328841,7.77266846 51.6692722,9.57266846 51.4897574,10.6826415 L48.4563342,31.4723989 L56.6552561,31.4723989 L60.2687332,6.98237197 C60.790566,3.27994609 59.2784367,0.4206469 55.3668464,0.4206469 L55.3668464,0.4206469 Z M26.3566038,8.3715903 C26.4838275,7.31283019 26.7053908,5.88695418 28.5571429,5.88695418 C30.4105121,5.88695418 30.1862534,7.31283019 30.0590296,8.3715903 L29.5237197,11.7036658 L25.8212938,11.7036658 L26.3566038,8.3715903 Z M27.7684636,23.8718598 C27.5884097,24.9290027 27.4185984,26.356496 25.5679245,26.356496 C23.7172507,26.356496 23.8832884,24.9290027 24.0654987,23.8718598 L25.0358491,17.3106739 L36.9361186,17.3106739 L38.1706199,8.95326146 C38.6455526,5.40824798 37.5938005,0.277250674 29.397035,0.277250674 C21.1986523,0.277250674 18.5463612,5.40824798 18.0681941,8.95326146 L15.9566038,23.2891105 C15.4266846,26.8319677 16.5301887,31.9645822 24.7285714,31.9645822 C32.9296496,31.9645822 35.525876,26.8319677 36.0563342,23.2891105 L36.5436658,20.0626954 L28.3431267,20.0626954 L27.7684636,23.8718598 Z M97.4444744,8.51606469 L95.1539084,24.0152561 C94.9722372,25.0707817 94.802965,26.4998922 92.9522911,26.4998922 C91.1026954,26.4998922 91.2703504,25.0707817 91.4509434,24.0152561 L93.7420485,8.51606469 C93.8687332,7.45784367 94.0902965,6.02819407 95.9415094,6.02819407 C97.7932615,6.02819407 97.5722372,7.45784367 97.4444744,8.51606469 L97.4444744,8.51606469 Z M96.7814016,0.4206469 C88.583558,0.4206469 85.9307278,5.5516442 85.4557951,9.0961186 L83.3404313,23.4319677 C82.8126685,26.975903 83.9150943,32.1063612 92.1145553,32.1063612 C100.314016,32.1063612 102.91186,26.975903 103.439084,23.4319677 L105.554987,9.0961186 C106.030997,5.5516442 104.979245,0.4206469 96.7814016,0.4206469 L96.7814016,0.4206469 Z M66.0083558,1.0567655 C63.7221024,16.7667385 62.5916442,23.1667385 61.6369272,24.8594609 C61.1334232,25.7063612 60.7167116,25.9705121 60.080593,25.9705121 C59.3938005,25.9705121 58.9140162,25.8120216 58.5366577,25.5478706 L57.7409704,30.8901887 C58.2849057,31.3651213 59.7792453,31.8427493 61.2078167,31.8427493 C63.8013477,31.8427493 66.1075472,31.1559569 67.7819407,28.7732075 C69.7102426,25.9705121 70.2778976,22.0039353 72.706469,7.50959569 L75.9339623,7.50959569 L72.4115903,31.4723989 L80.6105121,31.4723989 L85.0520216,1.0567655 L66.0083558,1.0567655 Z M20.4838275,1.48695418 L20.545283,1.0567655 L0.919946092,1.0567655 L-0.000269541779,7.50959569 L5.71509434,7.50959569 L2.19326146,31.4723989 L10.3911051,31.4723989 L13.9134771,7.50959569 L16.6687332,7.50959569 C17.2180593,5.29989218 18.4363881,3.11822102 20.4838275,1.48695418 L20.4838275,1.48695418 Z" id="Fill-4" fill="#EF4E22" mask="url(#mask-4)"></path>
            </g>
        </g>
    </g>
</svg>